<?xml version="1.0" standalone="no"?>
<!DOCTYPE svg PUBLIC "-//W3C//DTD SVG 20010904//EN"
 "http://www.w3.org/TR/2001/REC-SVG-20010904/DTD/svg10.dtd">
<svg version="1.0" xmlns="http://www.w3.org/2000/svg"
 width="512.000000pt" height="512.000000pt" viewBox="0 0 512.000000 512.000000"
 preserveAspectRatio="xMidYMid meet">
<metadata>
Created by potrace 1.14, written by Peter Selinger 2001-2017
</metadata>
<g transform="translate(0.000000,512.000000) scale(0.100000,-0.100000)"
fill="#000000" stroke="none">
<path d="M2820 4489 c-59 -7 -105 -15 -105 -19 0 -1 -7 -3 -15 -5 -39 -7 -124
-36 -134 -44 -6 -5 -14 -10 -19 -10 -4 0 -23 -7 -42 -15 -19 -8 -61 -17 -92
-21 -75 -7 -84 -9 -108 -22 -11 -5 -35 -13 -54 -17 -47 -8 -168 -77 -224 -127
-38 -33 -56 -42 -94 -45 -50 -4 -111 -21 -130 -36 -6 -5 -9 -22 -6 -39 3 -21
-6 -52 -29 -100 -18 -38 -36 -69 -40 -69 -5 0 -8 -7 -8 -15 0 -8 -3 -15 -8
-15 -7 0 -72 -120 -72 -134 0 -4 -14 -38 -31 -74 -31 -67 -71 -182 -63 -182 3
0 0 -8 -5 -17 -13 -26 -26 -151 -36 -367 -6 -125 -10 -173 -20 -226 -3 -14 -5
-53 -6 -87 -1 -55 -3 -61 -21 -58 -11 3 -26 9 -33 15 -9 8 -14 8 -17 0 -2 -6
-13 -12 -25 -13 -12 0 -21 -4 -21 -7 1 -3 -7 -23 -17 -45 -10 -22 -20 -53 -22
-70 -8 -58 -8 -135 -1 -135 5 0 6 -10 4 -22 -1 -12 1 -38 5 -58 4 -19 10 -55
13 -80 6 -45 11 -75 22 -127 3 -16 6 -33 6 -40 1 -7 4 -10 8 -8 3 2 12 -12 19
-31 7 -19 16 -32 21 -29 4 3 10 0 12 -7 2 -6 19 -10 39 -9 74 5 90 2 105 -19
9 -13 28 -70 25 -78 -1 -1 5 -15 13 -31 9 -16 18 -44 21 -62 3 -19 10 -36 16
-37 5 -2 6 -8 3 -14 -4 -6 -2 -13 3 -17 5 -3 21 -31 36 -61 29 -60 56 -108 72
-126 6 -6 19 -23 30 -38 31 -42 103 -123 178 -198 37 -37 67 -73 67 -78 0 -6
6 -10 14 -10 7 0 34 -18 60 -41 25 -22 46 -38 46 -34 0 3 12 -6 27 -20 15 -14
36 -25 45 -25 10 0 18 -5 18 -12 0 -6 3 -8 6 -5 4 4 19 0 33 -7 33 -18 79 -34
111 -40 14 -2 36 -7 50 -10 94 -21 179 -23 255 -6 28 7 62 13 77 15 45 6 108
28 108 37 0 4 8 8 19 8 10 0 24 7 31 15 7 8 19 15 26 15 8 0 14 4 14 9 0 5 8
11 18 14 23 8 70 37 97 62 12 11 35 30 51 42 16 12 39 30 50 40 12 10 38 32
59 48 34 28 80 73 147 146 15 16 30 38 33 49 4 11 10 20 14 20 7 0 42 67 120
231 l32 67 57 -13 c65 -15 98 -5 122 39 7 14 17 26 21 26 4 0 6 9 4 19 -2 11
3 22 11 25 10 4 13 13 9 26 -4 12 -2 20 5 20 6 0 8 5 5 10 -3 6 -1 10 6 10 7
0 10 3 6 6 -3 3 -1 18 5 33 11 29 20 76 20 104 -1 9 3 17 7 17 4 0 8 6 9 13 8
56 15 87 21 87 10 0 5 143 -6 170 -12 28 -63 76 -63 59 0 -6 -7 -9 -15 -5 -8
3 -15 2 -15 -2 0 -4 -9 -8 -20 -9 -16 -1 -18 2 -9 24 5 15 12 58 14 97 4 78
14 184 20 231 3 17 7 111 11 210 4 143 2 196 -10 260 -9 44 -17 86 -18 93 -1
6 -5 12 -9 12 -4 0 -10 17 -14 38 -3 20 -12 46 -19 57 -8 13 -12 55 -12 115
l1 95 52 14 c28 7 54 19 57 26 15 39 -120 208 -229 286 -50 36 -167 96 -202
104 -10 2 -36 11 -58 19 -22 8 -91 25 -154 39 -62 14 -115 27 -116 29 -2 2 7
25 21 52 14 27 23 55 20 61 -4 12 -128 55 -176 62 -14 1 -36 4 -50 6 -14 2
-54 0 -90 -4z"/>
</g>
</svg>
